# Wavefront Obj file
# 
# verts: 8 uv-s: 22
mtllib wooden_floor.mtl

g pCube165
#pivot 0.000000 0.000000 0.000000

v -10.364529 38.460892 -4.219120
v -4.269056 38.460892 -10.321194
v -10.364529 39.196705 -4.219120
v -4.269056 39.196705 -10.321194
v -18.342421 39.196705 -7.555098
v -7.613667 39.196705 -18.295469
v -18.342421 38.460896 -7.555098
v -7.613667 38.460896 -18.295469
# 8 positions

vt 0.925077 0.010000
vt 0.925076 0.499367
vt 0.883327 0.499367
vt 0.883328 0.010000
vt 0.195989 0.071005
vt 0.685356 0.071005
vt 0.871345 0.525020
vt 0.010000 0.525020
vt 0.978727 0.128655
vt 0.978727 0.990000
vt 0.936979 0.990000
vt 0.936979 0.128654
vt 0.010000 0.535985
vt 0.871344 0.535985
vt 0.685356 0.990000
vt 0.195989 0.990000
vt 0.925077 0.990000
vt 0.883328 0.990000
vt 0.010152 0.016499
vt 0.500782 0.018292
vt 0.500629 0.060041
vt 0.010000 0.058247
# 22 texture coordinates

vn 0.707489 0.000000 0.706724
vn 0.707489 0.000000 0.706724
vn 0.707489 0.000000 0.706724
vn 0.707489 0.000000 0.706724
vn 0.000000 1.000000 0.000000
vn 0.000000 1.000000 0.000000
vn 0.000000 1.000000 0.000000
vn 0.000000 1.000000 0.000000
vn -0.707489 0.000000 -0.706724
vn -0.707489 0.000000 -0.706724
vn -0.707489 0.000000 -0.706724
vn -0.707489 0.000000 -0.706724
vn -0.000000 -1.000000 -0.000000
vn -0.000000 -1.000000 -0.000000
vn -0.000000 -1.000000 -0.000000
vn -0.000000 -1.000000 -0.000000
vn 0.922171 0.000000 -0.386782
vn 0.922171 0.000000 -0.386782
vn 0.922171 0.000000 -0.386782
vn 0.922171 0.000000 -0.386782
vn -0.385783 0.000000 0.922589
vn -0.385783 0.000000 0.922589
vn -0.385783 0.000000 0.922589
vn -0.385783 0.000000 0.922589
# 24 normals

usemtl initialShadingGroup
s 1
f 1/1/1 2/2/2 4/3/3 3/4/4
s 2
f 3/5/5 4/6/6 6/7/7 5/8/8
s 3
f 5/9/9 6/10/10 8/11/11 7/12/12
s 4
f 7/13/13 8/14/14 2/15/15 1/16/16
s 5
f 2/2/17 8/17/18 6/18/19 4/3/20
s 6
f 7/19/21 1/20/22 3/21/23 5/22/24

# 6 faces
